<svg height="64px" width="64px" version="1.1" id="Layer_1" xmlns="http://www.w3.org/2000/svg" xmlns:xlink="http://www.w3.org/1999/xlink" viewBox="0 0 512 512" xml:space="preserve" fill="#000000"><g id="SVGRepo_bgCarrier" stroke-width="0"></g><g id="SVGRepo_tracerCarrier" stroke-linecap="round" stroke-linejoin="round"></g><g id="SVGRepo_iconCarrier"> <path d="M256,0C128.939,0,25.6,103.339,25.6,230.4c0,2.56,0,68.267,0,68.267C25.6,416.341,128.939,512,256,512 s230.4-95.659,230.4-213.333c0,0,0-65.707,0-68.267C486.4,103.339,383.061,0,256,0z M76.8,375.467v29.525 c-17.493-24.832-29.013-53.504-32.768-84.309c8.448,19.712,19.541,37.973,32.853,54.443C76.885,375.211,76.8,375.296,76.8,375.467z M119.467,449.365c-9.216-7.168-17.749-14.933-25.6-23.381v-32.085c8.107,8.021,16.384,17.493,25.6,24.235 C119.467,426.667,119.467,449.365,119.467,449.365z M162.133,474.88c-8.96-4.096-17.493-8.619-25.685-13.739 c0-0.085,0.085-0.256,0.085-0.341v-33.451c8.192,4.949,16.811,9.387,25.6,13.397V474.88z M204.8,489.216 c-8.789-2.048-17.323-4.523-25.6-7.509v-34.133c8.363,2.987,16.896,5.461,25.6,7.424V489.216z M247.467,494.763 c-8.704-0.341-17.237-1.109-25.6-2.389V458.24c8.363,1.28,16.981,2.048,25.6,2.304V494.763z M290.133,492.373 c-8.363,1.28-16.896,2.048-25.6,2.389v-34.219c8.619-0.256,17.237-1.024,25.6-2.304V492.373z M332.8,481.707 c-8.277,2.987-16.811,5.461-25.6,7.509v-34.219c8.704-1.963,17.237-4.437,25.6-7.424V481.707z M349.867,474.88v-34.133 c8.789-4.011,17.408-8.448,25.6-13.397V460.8c0,0.085,0.085,0.256,0.085,0.341C367.36,466.261,358.827,470.784,349.867,474.88z M418.133,425.984c-7.851,8.448-16.384,16.213-25.6,23.381c0-24.832,0-24.832,0-31.232c9.216-6.741,17.493-16.213,25.6-24.235 V425.984z M435.2,404.992v-29.525c0-0.171-0.085-0.256-0.085-0.341c13.312-16.469,24.405-34.731,32.853-54.443 C464.213,351.488,452.693,380.16,435.2,404.992z M256,443.051c-117.248,0-212.651-95.403-212.651-212.651S138.752,17.749,256,17.749 S468.651,113.152,468.651,230.4S373.248,443.051,256,443.051z"></path> <g> <path style="fill:#F9A825;" d="M76.885,375.125c0,0.085-0.085,0.171-0.085,0.341v29.525 c-17.493-24.832-29.013-53.504-32.768-84.309C52.48,340.395,63.573,358.656,76.885,375.125z"></path> <path style="fill:#F9A825;" d="M119.467,418.133c0,8.533,0,31.232,0,31.232c-9.216-7.168-17.749-14.933-25.6-23.381v-32.085 C101.973,401.92,110.251,411.392,119.467,418.133z"></path> <path style="fill:#F9A825;" d="M162.133,440.747v34.133c-8.96-4.096-17.493-8.619-25.685-13.739c0-0.085,0.085-0.256,0.085-0.341 v-33.451C144.725,432.299,153.344,436.736,162.133,440.747z"></path> <path style="fill:#F9A825;" d="M204.8,454.997v34.219c-8.789-2.048-17.323-4.523-25.6-7.509v-34.133 C187.563,450.56,196.096,453.035,204.8,454.997z"></path> <path style="fill:#F9A825;" d="M247.467,460.544v34.219c-8.704-0.341-17.237-1.109-25.6-2.389V458.24 C230.229,459.52,238.848,460.288,247.467,460.544z"></path> <path style="fill:#F9A825;" d="M290.133,458.24v34.133c-8.363,1.28-16.896,2.048-25.6,2.389v-34.219 C273.152,460.288,281.771,459.52,290.133,458.24z"></path> <path style="fill:#F9A825;" d="M332.8,447.573v34.133c-8.277,2.987-16.811,5.461-25.6,7.509v-34.219 C315.904,453.035,324.437,450.56,332.8,447.573z"></path> <path style="fill:#F9A825;" d="M375.552,461.141c-8.192,5.12-16.725,9.643-25.685,13.739v-34.133 c8.789-4.011,17.408-8.448,25.6-13.397V460.8C375.467,460.885,375.552,461.056,375.552,461.141z"></path> <path style="fill:#F9A825;" d="M418.133,393.899v32.085c-7.851,8.448-16.384,16.213-25.6,23.381c0-24.832,0-24.832,0-31.232 C401.749,411.392,410.027,401.92,418.133,393.899z"></path> <path style="fill:#F9A825;" d="M435.2,404.992v-29.525c0-0.171-0.085-0.256-0.085-0.341c13.312-16.469,24.405-34.731,32.853-54.443 C464.213,351.488,452.693,380.16,435.2,404.992z"></path> </g> <path style="fill:#FFC107;" d="M256,17.749c-117.248,0-212.651,95.403-212.651,212.651S138.752,443.051,256,443.051 S468.651,347.648,468.651,230.4S373.248,17.749,256,17.749z M256,407.637c-97.707,0-177.237-79.531-177.237-177.237 S158.293,53.163,256,53.163S433.237,132.693,433.237,230.4S353.707,407.637,256,407.637z"></path> <path d="M256,53.163c-97.707,0-177.237,79.531-177.237,177.237S158.293,407.637,256,407.637S433.237,328.107,433.237,230.4 S353.707,53.163,256,53.163z M256,389.888c-87.979,0-159.488-71.509-159.488-159.488S168.021,70.912,256,70.912 S415.488,142.421,415.488,230.4S343.979,389.888,256,389.888z"></path> <path style="fill:#F9A825;" d="M256,70.912c-87.979,0-159.488,71.509-159.488,159.488S168.021,389.888,256,389.888 S415.488,318.379,415.488,230.4S343.979,70.912,256,70.912z M281.6,204.8c4.693,0,8.533,3.84,8.533,8.533s-3.84,8.533-8.533,8.533 h-84.907c-0.256,2.816-0.427,5.632-0.427,8.533c0,5.803,0.597,11.52,1.536,17.067H281.6c4.693,0,8.533,3.84,8.533,8.533 c0,4.693-3.84,8.533-8.533,8.533h-79.616c14.251,42.24,54.187,72.704,101.12,72.704c4.693,0,8.533,3.84,8.533,8.533 c0,4.779-3.84,8.533-8.533,8.533c-56.491,0-104.107-37.973-119.04-89.771h-21.931c-4.693,0-8.533-3.84-8.533-8.533 c0-4.693,3.84-8.533,8.533-8.533h18.347c-0.768-5.632-1.28-11.264-1.28-17.067c0-2.901,0.256-5.717,0.427-8.533h-15.957 c-4.693,0-8.533-3.84-8.533-8.533s3.84-8.533,8.533-8.533h18.261c11.776-56.064,61.611-98.304,121.173-98.304 c4.693,0,8.533,3.755,8.533,8.533c0,4.693-3.84,8.533-8.533,8.533c-50.091,0-92.075,34.645-103.595,81.237H281.6z"></path> <path d="M311.637,345.771c0,4.779-3.84,8.533-8.533,8.533c-56.491,0-104.107-37.973-119.04-89.771h-21.931 c-4.693,0-8.533-3.84-8.533-8.533c0-4.693,3.84-8.533,8.533-8.533h18.347c-0.768-5.632-1.28-11.264-1.28-17.067 c0-2.901,0.256-5.717,0.427-8.533h-15.957c-4.693,0-8.533-3.84-8.533-8.533s3.84-8.533,8.533-8.533h18.261 c11.776-56.064,61.611-98.304,121.173-98.304c4.693,0,8.533,3.755,8.533,8.533c0,4.693-3.84,8.533-8.533,8.533 c-50.091,0-92.075,34.645-103.595,81.237H281.6c4.693,0,8.533,3.84,8.533,8.533s-3.84,8.533-8.533,8.533h-84.907 c-0.256,2.816-0.427,5.632-0.427,8.533c0,5.803,0.597,11.52,1.536,17.067H281.6c4.693,0,8.533,3.84,8.533,8.533 c0,4.693-3.84,8.533-8.533,8.533h-79.616c14.251,42.24,54.187,72.704,101.12,72.704 C307.797,337.237,311.637,341.077,311.637,345.771z"></path> </g></svg>